<svg xmlns="http://www.w3.org/2000/svg" xmlns:xlink="http://www.w3.org/1999/xlink"><symbol id="title-stylized"><g fill="none"><path opacity=".6" fill="#7A66CC" stroke="#1C1B21" stroke-width=".5" d="M.25 8.25h3.5v22.5H.25z"/><path opacity=".3" fill="#7A66CC" stroke="#1C1B21" stroke-width=".5" d="M4.25 18.25h3.5v12.5h-3.5z"/><path opacity=".8" fill="#7A66CC" stroke="#1C1B21" stroke-width=".5" d="M8.25 5.25h3.5v25.5h-3.5z"/><path opacity=".6" fill="#7A66CC" stroke="#1C1B21" stroke-width=".5" d="M12.25 12.25h3.5v18.5h-3.5z"/><path fill="#7A66CC" stroke="#1C1B21" stroke-width=".5" d="M16.25.25h3.5v30.5h-3.5z"/><path opacity=".9" fill="#7A66CC" stroke="#1C1B21" stroke-width=".5" d="M20.25 5.25h3.5v25.5h-3.5z"/><path opacity=".6" fill="#7A66CC" stroke="#1C1B21" stroke-width=".5" d="M24.25 10.25h3.5v20.5h-3.5z"/><path opacity=".8" fill="#7A66CC" stroke="#1C1B21" stroke-width=".5" d="M28.25 3.25h3.5v27.5h-3.5z"/><path opacity=".4" fill="#7A66CC" stroke="#1C1B21" stroke-width=".5" d="M32.25 17.25h3.5v13.5h-3.5z"/><path opacity=".5" fill="#7A66CC" stroke="#1C1B21" stroke-width=".5" d="M36.25 12.25h3.5v18.5h-3.5z"/><path opacity=".55" fill="#7A66CC" stroke="#1C1B21" stroke-width=".5" d="M40.25 8.25h3.5v22.5h-3.5z"/><path opacity=".6" fill="#7A66CC" stroke="#1C1B21" stroke-width=".5" d="M44.25 4.25h3.5v26.5h-3.5z"/><path opacity=".3" fill="#7A66CC" stroke="#1C1B21" stroke-width=".5" d="M48.25 19.25h3.5v11.5h-3.5z"/><path opacity=".2" fill="#7A66CC" stroke="#1C1B21" stroke-width=".5" d="M52.25 24.25h3.5v6.5h-3.5z"/><path opacity=".8" fill="#7A66CC" stroke="#1C1B21" stroke-width=".5" d="M56.25 2.25h3.5v28.5h-3.5zM60.25 8.25h3.5v22.5h-3.5z"/></g></symbol><symbol id="tours-arrow"><g fill="none"><path d="M.646 4.354a.5.5 0 010-.708L3.828.464a.5.5 0 11.708.708L1.707 4l2.829 2.828a.5.5 0 11-.708.708L.646 4.354zM21 4.5H1v-1h20v1z" fill="#fff"/></g></symbol></svg>